<svg id="Capa_1" data-name="Capa 1" xmlns="http://www.w3.org/2000/svg" viewBox="0 0 317.23 317.46"><defs><style>.cls-1{fill:#fff;}</style></defs><path class="cls-1" d="M250.26,91.27c29.91.17,56,10.65,77.63,31.92,15.86,15.62,31.27,31.71,47.29,47.17,43.28,41.77,45.05,112.74,2.34,156.43-18.69,19.12-37,38.87-57.26,56.16-43.41,37-107.4,33.59-148.1-6.44q-24.51-24.12-48.63-48.64c-43.19-43.88-42.79-113.19.78-156.81q23.08-23.1,46.16-46.19C192.37,102.85,218.76,91.55,250.26,91.27Zm-43.8,143.29c0-5.73.14-10.54,0-15.35a16,16,0,0,0-15-15.76c-8.33-.58-15.32,5.11-16.54,13.8a83.61,83.61,0,0,0-.56,11.42c-.05,17-.17,33.91,0,50.86.15,11.09,6.76,17.77,16.67,17.57,9.16-.18,15.34-7.32,15.38-17.79,0-4.25,0-8.5,0-13.18h71c12.77,0,19.8-5.56,19.86-15.68.06-10.37-6.73-15.89-19.56-15.89H206.46Zm41.77-57.85c-10.12,0-20.25,0-30.37,0-9.34,0-16.46,6.8-16.52,15.59s7,15.91,16.27,15.94q30.87.1,61.74,0a15.72,15.72,0,0,0,15.91-15.67c0-9.05-6.79-15.8-16.16-15.86C268.81,176.67,258.52,176.71,248.23,176.71ZM248.05,324c10.13,0,20.25.06,30.38,0,9.79-.07,16.82-6.74,16.83-15.79s-6.92-15.78-16.74-15.8q-30.12,0-60.25,0c-9.73,0-17,6.75-16.93,15.69s7.07,15.81,16.84,15.9C228.13,324.1,238.09,324,248.05,324ZM306,205.54a15.88,15.88,0,0,0-15.78,15.79,16.11,16.11,0,0,0,16.24,15.91,16,16,0,0,0,15.71-15.87A15.75,15.75,0,0,0,306,205.54Z" transform="translate(-91.38 -91.27)"/></svg>