<?xml version="1.0" encoding="utf-8"?>
<!-- Generator: Adobe Illustrator 25.0.1, SVG Export Plug-In . SVG Version: 6.00 Build 0)  -->
<svg version="1.1" id="Capa_1" xmlns="http://www.w3.org/2000/svg" xmlns:xlink="http://www.w3.org/1999/xlink" x="0px" y="0px"
	 viewBox="0 0 80 80" style="enable-background:new 0 0 80 80;" xml:space="preserve">
<style type="text/css">
	.st0{fill:#FFFFFF;}
</style>
<g>
	<path class="st0" d="M40,2c21,0,38,17,38,38S61,78,40,78S2,61,2,40S19,2,40,2 M40,0C17.9,0,0,17.9,0,40s17.9,40,40,40
		s40-17.9,40-40S62.1,0,40,0L40,0z"/>
</g>
<g>
	<path class="st0" d="M30,27.6v24.9h-5.7l0-16.8l-2.3,16.8h-4L15.7,36l0,16.4H10V27.6h8.4c0.2,1.5,0.5,3.3,0.8,5.3l0.9,6.3l1.5-11.6
		H30z"/>
	<path class="st0" d="M47.7,38.4h-6.5v-4.3c0-1.3-0.1-2-0.2-2.4c-0.1-0.3-0.4-0.5-0.9-0.5c-0.5,0-0.9,0.2-1,0.6
		c-0.1,0.4-0.2,1.2-0.2,2.5v11.6c0,1.2,0.1,2,0.2,2.4c0.1,0.4,0.5,0.6,1,0.6c0.5,0,0.8-0.2,0.9-0.6c0.1-0.4,0.2-1.2,0.2-2.6v-3.1
		h6.5v1c0,2.6-0.2,4.4-0.5,5.5c-0.4,1.1-1.2,2-2.4,2.8C43.5,52.6,42,53,40.1,53c-1.9,0-3.5-0.3-4.7-1c-1.2-0.7-2-1.6-2.4-2.8
		c-0.4-1.2-0.6-3-0.6-5.5v-7.3c0-1.8,0.1-3.1,0.2-4c0.1-0.9,0.5-1.8,1.1-2.6c0.6-0.8,1.5-1.5,2.5-2c1.1-0.5,2.3-0.7,3.7-0.7
		c1.9,0,3.5,0.4,4.7,1.1c1.2,0.7,2.1,1.7,2.4,2.8c0.4,1.1,0.6,2.8,0.6,5.1V38.4z"/>
	<path class="st0" d="M70,27.6v24.9h-5.7l0-16.8l-2.3,16.8h-4L55.7,36l0,16.4H50V27.6h8.4c0.2,1.5,0.5,3.3,0.8,5.3l0.9,6.3l1.5-11.6
		H70z"/>
</g>
</svg>
